<?xml version="1.0" standalone="no"?>
<!DOCTYPE svg PUBLIC "-//W3C//DTD SVG 20010904//EN"
 "http://www.w3.org/TR/2001/REC-SVG-20010904/DTD/svg10.dtd">
<svg version="1.0" xmlns="http://www.w3.org/2000/svg"
 width="800.000000pt" height="800.000000pt" viewBox="0 0 800.000000 800.000000"
 preserveAspectRatio="xMidYMid meet">
<metadata>
Created by potrace 1.14, written by Peter Selinger 2001-2017
</metadata>
<g transform="translate(0.000000,800.000000) scale(0.100000,-0.100000)"
fill="#000000" stroke="none">
<path d="M3930 7782 c0 -16 -186 -193 -255 -243 -38 -28 -126 -82 -195 -121
-205 -116 -274 -167 -350 -263 -83 -104 -130 -220 -145 -355 -3 -30 -7 -55 -8
-55 -1 -1 -38 -12 -82 -24 -122 -35 -243 -102 -324 -179 -167 -161 -233 -353
-226 -654 2 -76 6 -141 9 -146 2 -4 8 -34 11 -66 7 -54 6 -57 -12 -48 -22 12
-131 41 -182 49 -138 20 -307 0 -431 -53 -69 -30 -210 -114 -210 -126 0 -11
91 -102 126 -126 l31 -21 54 28 c178 96 391 105 584 25 137 -57 171 -60 239
-20 46 27 74 72 77 122 3 33 -9 94 -21 109 -25 33 -68 233 -64 300 6 134 29
220 85 325 92 173 307 300 526 313 48 2 55 11 44 58 -12 55 -5 180 13 243 24
83 68 155 129 214 77 75 93 86 258 173 84 44 191 107 240 140 l88 60 38 -20
c21 -12 79 -48 128 -81 50 -33 143 -87 209 -120 65 -33 137 -74 160 -89 87
-61 149 -147 175 -246 l10 -40 52 1 c46 1 97 -8 167 -30 20 -7 22 -5 18 16 -3
13 -8 41 -11 63 -19 134 -71 256 -142 331 -63 67 -81 78 -269 174 -215 111
-341 196 -446 302 -84 86 -98 97 -98 80z"/>
<path d="M5508 6865 c-2 -2 -23 -5 -48 -9 -111 -15 -224 -81 -289 -168 l-35
-47 -25 18 c-73 52 -206 105 -309 125 -88 17 -238 13 -317 -9 -210 -56 -403
-221 -510 -434 l-27 -52 -43 75 c-135 237 -334 376 -563 393 l-73 5 5 -79 c3
-44 11 -97 18 -118 13 -36 16 -38 98 -62 191 -54 281 -123 355 -277 25 -51 45
-97 45 -104 0 -26 52 -89 90 -111 59 -33 101 -25 172 32 10 8 32 45 48 83 60
135 82 173 136 232 81 90 204 163 301 178 21 3 41 8 44 10 10 6 160 5 200 -1
101 -14 266 -83 356 -147 23 -17 44 -29 46 -27 2 2 16 26 32 54 87 152 218
228 378 220 113 -6 142 -14 377 -103 147 -56 289 -93 420 -108 30 -3 57 -8 59
-10 3 -3 6 -33 7 -67 3 -110 6 -151 15 -228 11 -87 11 -86 39 -204 31 -127 35
-296 11 -394 -18 -74 -18 -74 3 -98 24 -28 86 -142 86 -160 1 -47 62 61 87
152 13 48 23 98 28 140 7 50 7 249 0 295 -1 14 -6 52 -10 85 -4 33 -9 63 -11
66 -3 6 -22 120 -30 179 -2 19 -6 46 -9 60 -13 63 -17 125 -19 259 l-3 144
-134 2 c-174 4 -283 27 -557 120 -119 40 -245 76 -278 80 -79 9 -162 14 -166
10z"/>
<path d="M2125 6828 c-22 -5 -121 -35 -220 -67 -176 -58 -279 -84 -380 -96
-64 -7 -228 -7 -248 1 -14 5 -15 -11 -12 -143 5 -188 -10 -294 -76 -533 -26
-96 -33 -127 -45 -200 -10 -60 -4 -209 11 -264 19 -72 43 -118 112 -212 44
-62 50 -74 39 -90 -21 -33 -80 -196 -90 -251 -71 -365 51 -648 381 -882 67
-48 81 -62 67 -67 -228 -70 -439 -341 -470 -603 l-6 -53 88 7 c49 5 99 9 112
9 19 1 27 12 45 66 58 172 155 268 391 385 88 44 147 80 160 97 11 16 21 50
24 82 8 100 -36 157 -148 191 -14 4 -54 22 -90 40 -276 138 -408 414 -335 700
25 99 78 210 145 300 37 50 41 59 26 67 -35 19 -134 108 -165 146 -17 22 -44
67 -59 99 -25 53 -27 67 -26 178 0 104 4 135 32 230 43 150 81 285 80 288 0 1
3 18 7 37 3 19 8 44 10 55 2 11 4 34 4 51 1 34 10 38 111 50 19 3 53 10 75 15
22 6 48 13 58 15 9 1 84 25 165 52 198 67 226 74 305 78 80 3 156 -20 232 -70
l51 -34 22 34 c12 18 45 52 74 75 29 23 54 44 56 48 6 16 -69 77 -133 107
-122 58 -280 84 -380 62z"/>
<path d="M5313 6438 c-18 -18 -47 -59 -67 -91 l-35 -58 20 -33 c26 -44 65
-158 77 -224 14 -76 7 -192 -18 -312 -29 -142 -30 -217 -2 -262 49 -80 122
-93 253 -47 185 66 321 85 452 65 82 -12 184 -62 252 -123 65 -58 130 -162
172 -271 25 -68 63 -228 63 -270 0 -19 4 -22 28 -17 77 16 201 14 266 -5 170
-48 265 -149 433 -460 55 -101 124 -215 162 -265 l38 -50 -45 -40 c-52 -45
-88 -99 -179 -268 -118 -220 -220 -321 -364 -362 l-65 -19 -2 -40 c0 -23 -3
-54 -5 -71 -3 -16 -8 -53 -12 -82 l-7 -51 43 4 c238 23 402 161 616 519 98
164 203 291 313 379 33 27 34 29 15 42 -46 33 -142 134 -194 204 -64 84 -124
178 -228 355 -89 150 -146 228 -224 304 -98 96 -236 152 -373 152 l-55 0 -15
46 c-9 26 -16 52 -16 60 0 7 -20 54 -44 105 -114 241 -267 384 -486 454 -64
21 -252 29 -322 15 -32 -7 -59 -12 -60 -11 -6 1 -176 -58 -197 -70 -29 -15
-33 -11 -21 28 18 64 25 140 25 272 0 156 -8 216 -41 320 -22 72 -91 201 -111
207 -5 2 -23 -11 -40 -29z"/>
<path d="M4092 5940 c-20 -54 -22 -86 -8 -120 27 -66 68 -262 91 -440 3 -25 8
-61 10 -80 3 -19 8 -55 10 -80 3 -25 7 -61 10 -80 2 -19 7 -62 10 -95 5 -55
13 -117 20 -155 41 -213 231 -292 358 -150 43 48 46 49 53 28 28 -90 159 -91
231 -3 47 56 65 128 62 237 -2 51 -6 109 -10 128 -4 19 -10 53 -14 75 -7 50
-54 320 -62 360 l-6 30 32 -29 c17 -16 33 -27 36 -25 4 4 -78 200 -101 242
-10 17 -13 15 -29 -19 -21 -45 -22 -68 -7 -144 6 -30 13 -73 16 -95 3 -22 15
-94 26 -160 11 -66 23 -136 26 -155 2 -19 9 -57 14 -85 9 -48 13 -74 26 -197
6 -54 4 -59 -24 -87 -16 -17 -41 -33 -56 -37 -67 -16 -140 29 -130 81 8 43
-11 35 -46 -20 -40 -63 -72 -84 -139 -92 -113 -13 -191 85 -215 270 -3 17 -8
59 -11 92 -4 33 -8 71 -10 85 -2 14 -6 52 -10 85 -3 33 -8 67 -10 75 -2 8 -6
40 -9 70 -6 53 -9 72 -22 150 -3 19 -8 46 -10 60 -15 87 -64 259 -84 290 -7
12 -11 10 -18 -10z"/>
<path d="M5063 5908 c-12 -29 -17 -57 -13 -63 4 -5 11 -29 15 -53 7 -42 8 -51
19 -132 3 -25 10 -67 16 -95 5 -27 12 -68 15 -90 14 -88 16 -102 26 -160 6
-33 13 -73 15 -90 2 -16 7 -48 10 -70 9 -64 17 -155 23 -253 2 -30 21 2 32 56
19 88 18 162 -5 317 -3 22 -8 58 -11 80 -3 22 -7 51 -10 65 -9 43 -15 76 -19
111 -4 32 -11 69 -20 116 -3 11 -7 43 -11 70 l-6 48 23 -27 c29 -34 42 -36 34
-5 -9 35 -99 227 -107 227 -3 0 -15 -24 -26 -52z"/>
<path d="M2663 5227 l-21 -43 21 -14 c12 -8 36 -22 53 -31 l31 -18 22 39 c11
21 21 42 21 48 0 10 -81 62 -97 62 -5 0 -18 -19 -30 -43z"/>
<path d="M2784 5095 c-10 -19 -21 -35 -24 -35 -3 0 -23 11 -45 25 -22 13 -44
24 -50 25 -15 0 -58 -81 -48 -90 20 -18 103 -61 103 -53 0 4 9 23 20 41 l20
33 28 -19 c66 -46 68 -46 96 5 15 25 25 47 24 48 -19 12 -98 55 -101 55 -2 0
-12 -16 -23 -35z"/>
<path d="M3388 5028 c-28 -7 -41 -18 -55 -46 -28 -58 -33 -54 72 -68 80 -10
90 -10 96 -1 3 5 32 1 64 -8 66 -20 82 -23 110 -24 19 -1 19 -1 0 -14 -11 -8
-42 -22 -70 -32 -27 -10 -54 -22 -60 -25 -27 -19 -148 -42 -187 -37 -56 7
-102 56 -88 93 5 13 8 24 5 24 -2 0 -64 -24 -137 -54 -170 -68 -242 -89 -413
-122 -37 -7 -211 -7 -244 0 -88 20 -137 41 -174 75 -37 35 -40 42 -41 92 0 30
3 67 8 83 14 44 -12 23 -35 -30 -67 -151 6 -277 181 -313 107 -22 268 -18 380
10 25 6 56 13 69 15 34 7 207 72 255 96 21 11 56 26 77 33 l37 13 6 -32 c7
-38 42 -74 82 -85 38 -10 97 6 271 72 184 71 278 94 398 96 33 1 49 19 59 67
l7 31 -73 0 c-138 0 -210 12 -398 65 -121 35 -151 39 -202 26z"/>
<path d="M988 4973 c-175 -59 -315 -202 -441 -451 -107 -210 -193 -327 -332
-451 -69 -63 -72 -67 -48 -75 22 -8 67 -46 156 -134 73 -71 147 -176 217 -307
83 -156 195 -313 283 -398 43 -41 155 -95 238 -113 13 -3 53 -8 89 -10 36 -3
68 -9 71 -12 3 -4 13 -34 23 -67 37 -122 116 -255 203 -341 157 -154 357 -235
582 -236 116 0 302 35 339 64 16 14 15 1 -3 -87 -36 -170 -36 -351 1 -498 19
-72 82 -209 117 -252 l24 -29 35 29 c48 42 110 127 104 145 -2 8 -16 43 -31
78 -43 104 -58 192 -51 317 3 61 13 137 22 170 8 33 17 65 18 70 1 6 9 33 18
60 27 81 29 115 9 161 -10 23 -35 53 -55 69 -44 34 -107 36 -192 5 -154 -56
-194 -64 -334 -64 -116 -1 -144 2 -201 22 -246 85 -401 285 -453 587 -7 39
-17 69 -22 68 -5 0 -25 -4 -44 -8 -19 -3 -74 -9 -121 -12 -73 -5 -98 -2 -155
17 -118 37 -177 95 -271 265 -138 247 -192 332 -266 412 l-39 42 59 78 c90
120 124 175 209 341 55 110 91 167 124 201 52 51 133 95 209 113 50 11 51 12
51 50 0 21 0 40 1 43 1 2 9 41 19 85 l18 81 -55 -2 c-30 -2 -87 -13 -125 -26z"/>
<path d="M6504 4709 c-39 -9 -41 -12 -63 -77 -49 -143 -122 -248 -228 -330
-23 -18 -88 -55 -145 -81 -57 -27 -115 -60 -129 -75 -52 -52 -61 -157 -18
-217 23 -32 44 -45 158 -93 177 -75 290 -192 347 -362 61 -183 28 -413 -89
-613 -21 -34 -35 -66 -33 -70 3 -3 31 -24 63 -46 125 -86 172 -146 195 -250
22 -98 11 -193 -39 -338 -78 -226 -108 -361 -118 -530 -2 -32 -5 -60 -7 -62
-2 -2 -30 -6 -63 -10 -93 -9 -138 -15 -160 -19 -83 -17 -139 -33 -270 -77
-235 -78 -355 -77 -452 6 l-42 35 -33 -41 c-18 -23 -52 -56 -75 -74 l-42 -32
36 -37 c51 -51 121 -93 184 -112 76 -23 242 -22 321 2 9 3 25 7 35 9 10 2 59
16 108 31 249 74 274 78 492 79 l163 0 1 25 c0 14 2 77 4 140 5 171 11 225 39
359 3 13 12 48 21 77 9 30 16 57 16 61 1 5 6 19 11 33 127 324 107 603 -54
773 l-49 51 20 51 c19 49 30 82 32 97 0 4 5 22 10 40 5 18 12 52 15 74 2 23 7
53 10 65 7 34 6 206 -1 254 -35 225 -131 389 -299 511 -33 24 -83 53 -113 66
-49 20 -69 38 -41 38 6 0 39 18 73 40 110 72 204 186 284 347 42 84 88 213 93
261 3 27 2 27 -62 29 -36 1 -83 -3 -106 -8z"/>
<path d="M4571 4509 c-12 -23 -21 -42 -19 -44 12 -9 96 -55 101 -55 6 0 47 73
47 83 0 9 -80 57 -94 57 -8 0 -24 -19 -35 -41z"/>
<path d="M3920 4430 c-15 -29 -12 -38 19 -54 27 -14 29 -14 40 11 13 29 3 47
-29 56 -13 3 -24 -1 -30 -13z"/>
<path d="M3958 4273 c-25 -29 -36 -57 -32 -82 7 -41 22 -50 92 -53 51 -2 67
-7 70 -19 3 -17 -33 -35 -126 -64 -48 -15 -72 -37 -72 -64 0 -11 22 -19 105
-36 49 -9 95 -32 95 -46 0 -21 -202 -99 -305 -118 -33 -6 -71 -13 -85 -16 -48
-9 -186 -18 -274 -17 -82 0 -131 4 -246 18 -67 9 -187 50 -259 89 -36 19 -66
33 -68 31 -3 -3 71 -73 117 -110 76 -61 213 -84 470 -81 211 3 233 6 370 39
108 27 226 77 266 112 27 25 47 78 40 102 -7 21 -61 52 -93 52 -12 1 -5 8 19
21 48 25 69 57 70 106 1 99 -105 192 -154 136z m62 -58 c11 -13 8 -15 -18 -15
-31 0 -47 11 -35 24 11 11 40 6 53 -9z"/>
<path d="M5243 3915 c-11 -29 -17 -57 -12 -62 5 -5 11 -26 14 -48 17 -124 27
-188 40 -260 8 -44 17 -100 21 -125 3 -24 7 -47 9 -50 2 -3 6 -34 10 -70 4
-36 8 -67 10 -70 7 -12 30 -220 34 -307 2 -40 19 -25 31 29 19 77 18 177 -1
313 -10 66 -20 138 -24 160 -3 22 -7 51 -11 65 -3 14 -7 41 -10 60 -2 19 -11
70 -20 113 -9 43 -13 81 -10 84 3 4 15 -2 26 -12 28 -25 33 -15 15 34 -18 51
-86 190 -95 196 -4 3 -16 -20 -27 -50z"/>
<path d="M5005 3901 c-17 -29 -34 -95 -26 -105 5 -6 11 -32 15 -57 7 -50 10
-68 22 -144 4 -27 9 -54 9 -60 1 -12 17 -106 21 -120 4 -21 26 -141 29 -165 2
-14 9 -57 14 -96 6 -40 13 -96 16 -125 4 -30 8 -67 10 -82 9 -69 -113 -126
-188 -88 -35 18 -77 74 -77 102 0 16 8 19 49 19 48 0 49 0 69 47 11 26 20 48
19 49 -1 1 -76 4 -167 7 -91 4 -190 11 -220 17 -30 6 -71 13 -90 15 -19 3 -62
12 -95 21 -33 8 -80 18 -105 21 -25 3 -47 6 -50 6 -3 1 -22 -2 -42 -6 -62 -13
-119 -116 -65 -118 12 -1 36 -2 52 -4 17 -2 80 -6 140 -9 61 -2 121 -7 135
-10 13 -3 42 -8 65 -12 22 -3 41 -7 43 -8 6 -7 -148 -70 -220 -91 -161 -47
-269 -11 -299 98 -6 22 -15 65 -20 96 -6 31 -13 69 -15 85 -10 51 -64 195 -96
254 -42 79 -88 143 -97 138 -4 -3 -8 -25 -10 -51 -1 -35 7 -63 34 -123 50
-105 93 -213 120 -299 32 -99 32 -99 -132 -234 -167 -138 -306 -194 -396 -160
-46 18 -57 115 -22 197 18 43 13 56 -8 22 -47 -72 -60 -246 -22 -288 79 -87
214 -56 410 93 109 83 166 148 187 210 9 29 17 43 17 32 1 -26 44 -113 70
-143 25 -29 81 -52 127 -52 57 0 149 27 285 85 198 84 344 127 324 95 -4 -6
-6 -35 -6 -64 0 -94 45 -141 145 -150 84 -8 173 78 196 190 14 64 8 168 -16
304 -13 77 -46 269 -50 295 -2 17 -9 53 -15 80 -5 28 -12 61 -15 75 l-6 25 29
-27 c16 -16 32 -28 36 -28 9 0 -26 93 -68 179 -36 73 -40 78 -50 62z"/>
<path d="M3939 3684 l-12 -24 -31 20 c-31 19 -32 19 -44 0 -17 -28 -15 -36 15
-55 25 -17 27 -17 43 5 17 22 17 22 45 4 27 -17 28 -17 41 1 21 28 17 42 -15
58 -27 14 -30 13 -42 -9z"/>
<path d="M2472 3370 c-13 -22 -20 -45 -17 -49 3 -5 25 -21 50 -34 32 -18 47
-22 53 -14 14 18 44 78 40 81 -8 7 -95 56 -99 56 -2 0 -14 -18 -27 -40z"/>
<path d="M2601 3257 c-6 -6 -11 -16 -11 -23 0 -6 -7 -17 -15 -24 -12 -10 -23
-7 -60 14 -25 15 -49 25 -53 22 -11 -6 -47 -85 -41 -89 2 -2 25 -16 51 -30
l47 -27 22 39 c18 32 25 38 38 30 9 -5 30 -18 46 -29 17 -10 33 -19 36 -19 11
-2 49 77 44 90 -3 8 -25 24 -49 36 -32 16 -46 19 -55 10z"/>
<path d="M2051 3087 c-25 -52 -36 -122 -27 -172 14 -75 117 -146 236 -163 49
-7 218 -5 260 2 19 4 49 9 66 11 67 10 207 57 325 108 68 30 127 53 132 50 4
-2 7 -14 7 -26 0 -31 39 -76 75 -86 37 -10 117 8 145 34 40 36 49 131 20 213
-12 31 -36 44 -37 20 0 -7 -3 -26 -6 -42 -4 -17 0 -40 8 -57 20 -38 19 -44
-10 -57 -32 -15 -87 -15 -118 -1 -32 15 -58 60 -50 89 3 13 2 21 -3 18 -18
-11 -250 -101 -309 -119 -242 -77 -457 -84 -595 -21 -88 40 -130 137 -91 210
13 25 14 32 2 32 -5 0 -19 -19 -30 -43z"/>
<path d="M3232 2714 c-13 -26 -22 -47 -20 -48 2 -2 20 -13 41 -25 21 -13 36
-26 35 -30 -2 -3 -12 -24 -23 -45 -20 -38 -20 -39 -1 -50 10 -6 33 -21 51 -32
l33 -22 26 49 27 48 -41 21 c-22 11 -40 25 -40 30 0 5 9 25 21 44 11 19 18 40
15 45 -5 7 -94 62 -100 61 0 0 -11 -21 -24 -46z"/>
<path d="M6195 2734 c-34 -26 -128 -71 -175 -84 -75 -20 -82 -21 -175 -21
-101 0 -206 18 -331 56 -103 31 -162 34 -205 9 -80 -47 -97 -123 -55 -248 43
-126 58 -213 59 -331 0 -127 -16 -204 -68 -310 -93 -192 -307 -328 -548 -347
-28 -2 -28 -3 -22 -53 18 -132 20 -164 13 -224 -8 -70 -41 -149 -83 -199 -49
-57 -128 -107 -365 -228 -96 -49 -195 -113 -252 -163 l-44 -40 -35 30 c-62 54
-192 136 -324 205 -156 81 -203 112 -261 172 -45 46 -94 135 -94 171 0 29 -14
34 -115 36 -50 1 -97 5 -103 9 -25 15 6 -158 41 -229 71 -144 197 -245 487
-390 176 -88 277 -167 373 -291 l31 -41 47 66 c94 134 167 191 364 286 211
101 236 115 291 155 167 124 238 268 243 497 1 40 2 41 41 48 114 19 265 95
356 177 195 179 281 443 249 773 -4 44 -9 89 -11 100 -3 11 -6 31 -8 45 -2 14
-7 37 -11 52 l-7 27 69 -24 c92 -32 160 -42 274 -39 206 6 419 89 527 206 l23
25 -39 38 c-38 35 -121 95 -132 95 -3 -1 -14 -8 -25 -16z"/>
<path d="M1261 2653 c-64 -97 -103 -246 -102 -393 1 -148 7 -193 41 -301 17
-56 30 -111 46 -184 18 -85 35 -239 40 -350 1 -44 3 -82 3 -85 1 -3 61 -5 134
-6 138 -1 246 -22 467 -89 106 -32 91 -28 240 -66 177 -44 275 -43 384 5 59
26 151 92 200 145 l30 31 50 -29 c183 -102 423 -142 598 -100 223 53 407 208
527 444 16 33 30 54 31 46 0 -26 50 -116 95 -174 49 -61 159 -148 240 -189
104 -53 310 -115 320 -97 3 4 4 19 1 32 -2 13 -7 55 -11 93 -10 101 -10 101
-68 114 -88 20 -208 84 -269 142 -75 72 -95 104 -149 238 -26 63 -56 125 -67
137 -31 34 -94 49 -143 33 -53 -18 -85 -58 -133 -167 -146 -334 -387 -468
-702 -393 -99 23 -197 63 -294 120 l-70 41 -37 -43 c-147 -166 -257 -228 -405
-229 -64 0 -118 16 -391 114 -110 40 -236 73 -316 82 -29 3 -57 7 -61 10 -4 2
-7 21 -7 42 -2 104 -32 262 -75 390 -29 89 -32 109 -32 218 0 108 3 129 31
210 26 76 29 91 17 98 -8 5 -41 42 -74 82 l-58 74 -31 -46z"/>
</g>
</svg>
